<svg width="102" height="100" viewBox="0 0 102 100" fill="none" xmlns="http://www.w3.org/2000/svg">
<path d="M23.0021 42.9303C23.6003 44.0198 23.611 45.3123 23.0342 46.4125C22.938 46.5941 23.2157 46.7544 23.3119 46.5728C23.9421 45.3657 23.9314 43.9557 23.2798 42.77C23.173 42.5778 22.906 42.7487 23.0021 42.9303Z" fill="#161616"/>
<path d="M23.3973 42.9836C23.7605 42.8021 24.1878 42.5777 24.6044 42.6739C25.2239 42.8021 25.2453 43.3041 25.288 43.8168C25.3307 44.5005 25.2987 45.2268 24.85 45.7823C24.7219 45.9425 24.9462 46.1668 25.0744 46.0066C25.6939 45.2482 25.7687 44.0625 25.5337 43.1332C25.2346 42.0116 24.0169 42.3214 23.2478 42.7059C23.0555 42.7914 23.2157 43.0691 23.3973 42.9836Z" fill="#161616"/>
<path d="M23.3972 46.6368C23.9954 46.7116 24.5936 46.4766 24.9888 46.0172C25.117 45.857 24.8927 45.6327 24.7645 45.7929C24.4227 46.1988 23.9313 46.3911 23.3972 46.327C23.1943 46.295 23.1943 46.6154 23.3972 46.6368Z" fill="#161616"/>
<path d="M23.3012 28.8623C23.4401 28.5952 23.8246 27.8689 24.2519 28.5418C24.3267 28.6486 24.3267 28.9477 24.348 29.0545C24.3908 29.2789 24.4655 29.5139 24.6258 29.6848C25.1599 30.2402 25.5337 29.3323 26.0892 29.6314C26.7942 30.0052 25.8755 30.7957 26.4524 31.2336C26.5912 31.3404 26.7514 31.3404 26.9117 31.2764C27.0185 31.2336 27.1039 31.1375 27.2108 31.0841C27.606 30.9132 27.7449 31.2657 27.7769 31.5754C27.7876 31.6716 27.841 31.725 27.9371 31.7357C28.0546 31.7464 28.1614 31.757 28.2789 31.7677C28.4819 31.7891 28.4819 31.4686 28.2789 31.4473C28.1614 31.4366 28.0546 31.4259 27.9371 31.4152C27.9905 31.4686 28.0439 31.522 28.0974 31.5754C28.0653 31.287 28.0119 30.9132 27.7449 30.7423C27.4564 30.55 27.2642 30.7209 26.9971 30.8491C26.8689 30.9132 26.7621 31.1268 26.5805 30.8704C26.5164 30.7743 26.6553 30.4752 26.6767 30.3684C26.7194 30.1975 26.7408 30.0479 26.6874 29.877C26.6019 29.61 26.3669 29.3857 26.0999 29.3002C25.7687 29.1827 25.6085 29.3216 25.3094 29.407C25.0424 29.4818 24.7753 29.4604 24.6792 29.172C24.6471 29.0652 24.6364 28.937 24.6258 28.8302C24.5937 28.6593 24.5724 28.4777 24.4869 28.3175C24.0489 27.5164 23.2905 28.1893 23.0235 28.7341C22.9274 28.8836 23.2051 29.0439 23.3012 28.8623Z" fill="#161616"/>
<path d="M25.3735 27.8689C25.6298 27.6233 25.8648 27.5164 26.1426 27.7514C26.3669 27.9437 26.3242 28.0078 26.3882 28.2642C26.431 28.4137 26.4737 28.5526 26.6019 28.6594C26.7621 28.7983 26.9437 28.7983 27.1467 28.7769C27.3389 28.7555 27.5632 28.6274 27.7235 28.8303C27.7982 28.9264 27.7876 29.1401 27.7876 29.2576C27.7982 29.578 27.7982 29.9626 28.1614 30.0801C28.2682 30.1121 28.3857 30.0587 28.4819 30.0908C28.6101 30.0374 28.6635 30.0694 28.6742 30.2083C28.7169 30.2937 28.7382 30.3792 28.7276 30.486C28.781 30.7317 28.8771 30.9133 29.0694 31.0842C29.2189 31.223 29.4432 30.9987 29.2937 30.8599C28.9732 30.5608 29.1976 30.1442 28.9305 29.8771C28.6528 29.5994 28.2148 30.0053 28.1187 29.4926C28.0439 29.0974 28.1935 28.5633 27.6701 28.4244C27.2962 28.3283 26.901 28.7021 26.698 28.1894C26.6126 27.9758 26.6446 27.7408 26.4951 27.5378C26.1426 27.0785 25.491 27.3135 25.1385 27.6446C24.9889 27.7835 25.2239 28.0185 25.3735 27.8689Z" fill="#161616"/>
<path d="M64.7252 47.7264C64.4048 47.6943 64.8854 47.0641 64.9816 47.0107C65.2379 46.8718 65.537 46.9466 65.7293 47.1495C66.1459 47.5982 65.7934 48.2604 65.2273 48.3245C65.0243 48.3459 65.0243 48.6664 65.2273 48.645C65.6973 48.5916 66.1138 48.2818 66.2207 47.8118C66.3275 47.3525 66.0498 46.8611 65.6225 46.6795C65.2059 46.5086 64.7466 46.6689 64.5009 47.0427C64.2873 47.3632 64.2339 48.0041 64.7359 48.0468C64.9282 48.0682 64.9282 47.7477 64.7252 47.7264Z" fill="#161616"/>
<path d="M62.5675 47.0747C62.3432 46.8717 62.6102 46.4658 62.8666 46.6901C63.1336 46.9145 62.7705 47.2242 62.5248 47.0426C62.3646 46.9145 62.2043 47.1922 62.3646 47.3204C62.5889 47.4913 62.9307 47.4379 63.1336 47.2349C63.3686 46.9999 63.3152 46.6367 63.0696 46.4338C62.8239 46.2308 62.4714 46.2415 62.2791 46.5086C62.1082 46.7436 62.1296 47.0854 62.3432 47.2883C62.4927 47.4379 62.7277 47.2136 62.5675 47.0747Z" fill="#161616"/>
<path d="M99.6227 33.3486C99.7296 35.3354 98.7362 37.2475 97.0591 38.3157C96.8882 38.4225 97.0484 38.7002 97.2193 38.5934C98.9925 37.4718 100.05 35.4529 99.9432 33.3486C99.9325 33.1457 99.6121 33.1457 99.6227 33.3486Z" fill="#161616"/>
<path d="M99.8364 33.5836C100.862 34.3313 100.445 35.6879 99.8791 36.5745C99.3451 37.4184 98.4798 38.4224 97.3689 38.2515C97.166 38.2195 97.0805 38.5293 97.2835 38.5613C98.6187 38.7536 99.6335 37.632 100.253 36.5852C100.873 35.549 101.108 34.1177 99.9966 33.3059C99.8257 33.1884 99.6655 33.4661 99.8364 33.5836Z" fill="#161616"/>
<path d="M9.91684 24.0768C10.5898 25.1877 10.9957 26.4161 11.0918 27.7086C11.1132 27.9116 11.4337 27.9116 11.4123 27.7086C11.3055 26.352 10.8996 25.0809 10.1946 23.9166C10.0771 23.735 9.79934 23.8952 9.91684 24.0768Z" fill="#E8E8E8"/>
<path d="M11.2201 23.7244C11.7755 24.7285 12.0853 25.818 12.1601 26.961C12.1707 27.1639 12.4912 27.1639 12.4805 26.961C12.4057 25.7646 12.0746 24.6216 11.4978 23.5641C11.4017 23.3825 11.1239 23.5428 11.2201 23.7244Z" fill="#E8E8E8"/>
<path d="M9.83142 26.1277C10.7607 25.5188 11.8076 25.1984 12.9292 25.177C13.1321 25.177 13.1321 24.8566 12.9292 24.8566C11.7648 24.8779 10.6539 25.2197 9.6712 25.8607C9.50029 25.9675 9.66051 26.2452 9.83142 26.1277Z" fill="#E8E8E8"/>
<path d="M9.79934 27.4309C10.9637 26.7259 12.2348 26.2773 13.5807 26.0743C13.7837 26.0423 13.6982 25.7325 13.4953 25.7645C12.1173 25.9675 10.8248 26.4375 9.63911 27.1532C9.46821 27.26 9.62843 27.5377 9.79934 27.4309Z" fill="#E8E8E8"/>
<path d="M72.523 32.6971C72.0316 32.9427 71.8393 33.5837 72.2559 34.0002C72.4803 34.2246 72.6725 34.1605 72.9396 34.2459C73.1105 34.2993 73.3028 34.4062 73.2707 34.5771C73.2493 34.6946 73.1318 34.7907 73.0678 34.8868C72.9609 35.0257 72.8328 35.1859 72.79 35.3568C72.7473 35.5598 72.8007 35.7627 72.9609 35.9016C73.1959 36.1046 73.5057 35.9764 73.7621 36.1046C74.2962 36.3609 73.3241 37.4825 74.1466 37.6962C74.3496 37.7496 74.435 37.4398 74.2321 37.3864C73.8903 37.3009 74.3175 36.6493 74.3496 36.4464C74.3709 36.2648 74.3389 36.0832 74.2 35.955C73.8368 35.6025 72.7687 35.9764 73.3134 35.0791C73.4843 34.8014 73.7941 34.4596 73.5912 34.0964C73.5271 33.9789 73.4203 33.9148 73.2921 33.8827C73.1639 33.8614 72.9609 33.8827 72.8328 33.8721C72.2666 33.84 72.2025 33.2098 72.6832 32.9641C72.8648 32.8893 72.7046 32.6116 72.523 32.6971Z" fill="#E8E8E8"/>
<path d="M74.8943 34.4916C74.5418 34.6305 74.5311 35.0151 74.7447 35.3035C74.8836 35.5064 75.1079 35.5491 75.2895 35.688C75.7381 36.0191 75.3429 36.2969 75.2681 36.6814C75.1399 37.3437 75.8449 37.1194 76.0479 37.5466C76.2188 37.8991 76.1547 38.2944 76.5927 38.4546C76.7849 38.5294 76.8704 38.2196 76.6781 38.1448C76.3684 38.038 76.4111 37.4505 76.2402 37.2155C76.1868 37.1301 76.112 37.0766 76.0372 37.0126C75.9945 36.9805 75.9304 36.9912 75.8984 36.9698C75.8236 36.9591 75.7702 36.9057 75.7488 36.7989C75.5993 36.7028 75.5779 36.6066 75.7061 36.4998C75.8022 36.2007 75.9945 36.0191 75.7915 35.7094C75.7168 35.5919 75.5779 35.5064 75.4604 35.4316C75.3643 35.3676 74.6699 34.9403 74.9904 34.8121C75.172 34.7266 75.0865 34.4169 74.8943 34.4916Z" fill="#E8E8E8"/>
<path d="M95.5316 56.0582C94.7518 55.5028 94.88 54.3384 95.7239 53.9112C96.3648 53.5907 97.2407 53.8898 97.5718 54.52C97.903 55.1503 97.6146 56.0368 96.9843 56.368C96.3221 56.7098 95.4996 56.4107 95.1257 55.8018C95.0189 55.6309 94.7411 55.7912 94.848 55.9621C95.3286 56.7632 96.4396 57.1157 97.2621 56.5816C98.0418 56.0689 98.2875 54.8832 97.7107 54.1355C97.1446 53.4091 96.0123 53.2382 95.2966 53.8257C94.4634 54.4987 94.5275 55.7271 95.3821 56.3466C95.5423 56.4534 95.7025 56.1757 95.5316 56.0582Z" fill="#E8E8E8"/>
<path d="M21.8057 59.1345C21.9232 58.75 22.0941 58.6432 22.2971 58.8248C22.3505 58.8461 22.4039 58.8782 22.4466 58.8995C22.5214 58.9209 22.6175 58.9423 22.6923 58.9316C22.8525 58.9102 22.9807 58.8141 23.0555 58.6859C23.3225 58.2586 23.0234 57.842 22.7564 57.5109C22.6175 57.3507 22.3612 57.137 22.3932 56.8914C22.4359 56.4214 22.7137 56.6136 22.9487 56.5816C23.1196 56.5602 23.2691 56.4961 23.3546 56.3359C23.44 56.197 23.4187 56.0155 23.3973 55.8659C23.3866 55.7805 23.3546 55.6843 23.3546 55.5989C23.2798 55.3745 23.3866 55.2357 23.675 55.1823C23.8139 55.2784 23.9314 55.3959 24.0275 55.5455C24.145 55.7164 24.4228 55.5561 24.3053 55.3852C24.0168 54.9793 23.1623 54.4239 23.0234 55.2677C22.9593 55.695 23.3546 56.1436 22.7243 56.2505C22.4146 56.3039 22.2009 56.3039 22.1048 56.667C22.0193 56.9661 22.1368 57.2545 22.3184 57.4895C22.4039 57.5964 22.5 57.6925 22.5855 57.7886C22.6923 57.8955 22.7671 58.013 22.8205 58.1518C22.6923 58.28 22.5748 58.4082 22.4466 58.5364C22.3505 58.5577 22.1048 58.3548 21.9659 58.3441C21.3464 58.3014 21.0153 59.1345 21.6348 59.4016C21.8378 59.487 21.998 59.2093 21.8057 59.1345Z" fill="#E8E8E8"/>
<path d="M24.4121 58.6751C24.2412 58.3974 23.9741 57.9701 24.0916 57.6176C24.1771 57.3506 24.5403 57.2331 24.7005 57.0194C24.9462 56.6883 24.9141 56.2504 24.6898 55.9192C24.6471 56.0047 24.5937 56.0794 24.5509 56.1649C25.1598 56.2076 25.6725 55.8444 25.8541 55.2569C25.9182 55.054 25.6084 54.9792 25.5443 55.1715C25.4055 55.6201 25.0209 55.8765 24.5509 55.8444C24.4334 55.8338 24.348 55.9833 24.4121 56.0901C24.5509 56.2931 24.6043 56.5815 24.4655 56.8058C24.3373 56.9981 24.1664 57.0088 24.0275 57.1476C23.8993 57.2758 23.8139 57.404 23.7818 57.5963C23.6964 58.0342 23.9314 58.4722 24.145 58.8354C24.2412 59.0169 24.5189 58.8567 24.4121 58.6751Z" fill="#E8E8E8"/>
<path d="M57.0343 3.4823C57.6004 4.1339 57.9529 4.8923 58.1025 5.73617C58.1345 5.93912 58.4443 5.85367 58.4123 5.65071C58.252 4.75344 57.8568 3.94162 57.2586 3.2473C57.1198 3.09776 56.8954 3.32208 57.0343 3.4823Z" fill="#E8E8E8"/>
<path d="M57.312 3.51432C57.6752 3.18318 59.1279 1.88 59.662 2.25386C59.929 2.44613 60.164 2.88409 60.335 3.1725C60.5486 3.53568 60.7195 3.92022 60.8584 4.31545C60.9225 4.50773 61.2322 4.42227 61.1681 4.23C60.9865 3.72795 60.7622 3.23659 60.4738 2.78795C60.2922 2.49954 60.0145 2.00818 59.6834 1.86932C59.3095 1.70909 58.8502 2.04022 58.5404 2.22182C58.017 2.52091 57.5363 2.88409 57.0877 3.29C56.9381 3.42886 57.1625 3.65318 57.312 3.51432Z" fill="#E8E8E8"/>
<path d="M58.4443 5.93905C59.2775 5.23405 60.1854 4.65723 61.1895 4.21928C61.3818 4.13382 61.2109 3.8561 61.0293 3.94155C60.0038 4.39019 59.0745 4.98837 58.22 5.71473C58.0597 5.84291 58.2841 6.06723 58.4443 5.93905Z" fill="#E8E8E8"/>
<path d="M60.303 2.92693C60.7089 2.58511 61.6169 1.71988 62.1189 2.28602C62.4821 2.69193 62.7171 3.3542 62.9307 3.84556C63.0162 4.03784 63.2939 3.86693 63.2085 3.68534C63.0055 3.22602 62.7919 2.78806 62.5355 2.36079C62.4073 2.13647 62.2471 1.79465 61.98 1.69852C61.6703 1.5917 61.3391 1.81602 61.0935 1.96556C60.7303 2.1792 60.3991 2.42488 60.0787 2.69193C59.9185 2.84147 60.1535 3.06579 60.303 2.92693Z" fill="#E8E8E8"/>
<path d="M59.5125 4.88155C60.0146 5.10587 60.4418 5.40496 60.8371 5.7895C60.9118 5.86428 61.0293 5.84291 61.0934 5.75746C61.5634 5.0845 62.183 4.57178 62.9307 4.21928C63.123 4.13382 62.9521 3.8561 62.7705 3.94155C61.9693 4.31541 61.3177 4.87087 60.8157 5.58655C60.9012 5.57587 60.9866 5.56519 61.0721 5.5545C60.6662 5.1486 60.2068 4.83882 59.6834 4.60382C59.4805 4.52905 59.3202 4.7961 59.5125 4.88155Z" fill="#E8E8E8"/>
<path d="M61.8412 16.7597C61.8199 16.6422 61.7878 16.5247 61.7665 16.4072C61.8626 16.3111 61.9587 16.2257 62.0762 16.1616C62.1403 16.1188 62.2151 16.0761 62.2792 16.0227C62.4074 15.9159 62.4928 15.8091 62.5569 15.6595C62.6317 15.4672 62.6103 15.2857 62.589 15.0827C62.5783 15.0186 62.5676 14.9438 62.5569 14.8797C62.5462 14.805 62.589 13.9397 62.9308 14.2175C63.091 14.3457 63.3153 14.1213 63.1551 13.9932C62.9201 13.8009 62.6744 13.8329 62.4608 14.0359C62.0976 14.3884 62.2685 14.805 62.2899 15.2322C62.3219 15.8732 61.4887 15.9052 61.414 16.4927C61.3819 16.7597 61.4887 17.0054 61.7665 17.0588C61.9587 17.1016 62.0442 16.7918 61.8412 16.7597Z" fill="#EC615B"/>
<path d="M63.0162 15.8731C63.2726 16.0761 63.6357 15.9266 63.6892 15.5954C63.7426 15.307 63.5503 15.04 63.5717 14.7516C63.6037 14.3563 63.8707 14.0145 64.2339 13.8756C64.4262 13.8009 64.3407 13.4911 64.1485 13.5659C63.796 13.6941 63.5182 13.9291 63.3687 14.2816C63.2939 14.4418 63.2512 14.6234 63.2512 14.805C63.2512 14.8904 63.2619 14.9759 63.2726 15.0506C63.2726 15.0506 63.4328 15.7877 63.2512 15.6381C63.0803 15.5206 62.856 15.745 63.0162 15.8731Z" fill="#EC615B"/>
<path d="M35.4571 51.1231C35.2648 51.0163 35.2434 50.7706 35.3823 50.6104C35.5212 50.4502 35.7775 50.3861 35.9805 50.4181C36.1514 50.4502 36.3437 50.5356 36.4184 50.7065C36.5039 50.8988 36.3757 51.2299 36.1193 51.1979C35.9164 51.1658 35.8309 51.4756 36.0339 51.5077C36.3971 51.5611 36.7175 51.3154 36.7709 50.9415C36.835 50.5463 36.5146 50.2258 36.1514 50.1297C35.7775 50.0229 35.3075 50.1404 35.0832 50.4822C34.8803 50.792 34.9657 51.2299 35.3075 51.4008C35.4784 51.497 35.6387 51.2192 35.4571 51.1231Z" fill="#EC615B"/>
<path d="M18.5797 13.3202C18.6438 13.1066 18.7079 12.8823 18.7613 12.6687C18.8254 12.69 18.8895 12.7114 18.9536 12.7327C19.0391 12.7434 19.1245 12.7968 19.21 12.8182C19.3275 12.8502 19.4663 12.8609 19.5838 12.8289C19.8616 12.7327 19.947 12.4657 19.947 12.1987C19.947 11.9316 19.8509 11.6432 20.0645 11.4296C20.2354 11.2587 20.5238 11.1946 20.7481 11.248C21.4852 11.4189 21.4104 12.3482 21.09 12.8502C20.9831 13.0212 21.2609 13.1814 21.3677 13.0105C21.7202 12.4443 21.8056 11.5898 21.2288 11.1305C20.8016 10.7887 20.0752 10.8527 19.7441 11.3014C19.5197 11.6005 19.6693 11.8675 19.6052 12.2093C19.4984 12.7755 18.6972 12.2521 18.3341 12.3802C17.6504 12.6259 17.8534 13.4912 18.4622 13.6514C18.6866 13.6834 18.772 13.3737 18.5797 13.3202Z" fill="#EC615B"/>
<path d="M88.0543 60.1708C88.2787 59.9999 88.5243 59.9892 88.7914 60.128C88.9089 60.1921 89.0691 60.0853 89.0264 59.9464C88.9302 59.7542 88.9516 59.5833 89.1118 59.4337C89.1866 59.1026 89.3575 59.0812 89.6139 59.3589C89.6887 59.5085 89.9023 59.423 89.913 59.2735C89.913 59.1346 89.9237 58.9851 89.945 58.8462C89.9771 58.5044 90.2014 58.4189 90.5966 58.5792C90.6821 58.7714 90.9491 58.6005 90.8743 58.4189C90.7462 58.1199 90.4043 58.0237 90.1052 58.1412C89.6566 58.3228 89.6032 58.8569 89.5925 59.2735C89.6887 59.2414 89.7955 59.2201 89.8916 59.188C89.7421 58.8676 89.3575 58.7501 89.0371 58.9103C88.6312 59.1239 88.6098 59.626 88.7166 60.0212C88.7914 59.9571 88.8768 59.9037 88.9516 59.8396C88.5884 59.658 88.2466 59.6687 87.8941 59.8824C87.7232 59.9999 87.8834 60.2776 88.0543 60.1708Z" fill="#EC615B"/>
<path d="M79.7545 15.9159C79.1777 16.0869 78.7718 16.5782 78.697 17.1871C78.6223 17.7639 78.9641 18.4796 79.605 18.5437C80.075 18.5864 80.545 18.0523 80.2566 17.6144C79.9468 17.1337 79.3486 17.4862 79.1029 17.828C78.4086 18.8214 79.0282 20.7655 80.4595 20.3062C80.8548 20.178 81.3461 19.6973 81.1218 19.238C80.8441 18.6719 80.2245 19.2807 80.0643 19.6012C79.7332 20.2634 79.6477 21.2141 80.3313 21.6841C80.8654 22.0473 81.6025 21.8123 81.7734 21.1821C81.8161 21.0432 81.6132 20.8937 81.5063 21.0219C80.7693 21.9512 81.3354 23.233 82.5318 23.2757C82.7348 23.2864 82.7348 22.9659 82.5318 22.9553C81.6345 22.9232 81.1645 21.9619 81.7307 21.2569C81.6452 21.2034 81.5491 21.15 81.4636 21.0966C81.3034 21.7055 80.5557 21.6094 80.2673 21.1607C80.0109 20.7441 80.0963 20.178 80.3313 19.7614C80.3848 19.6546 80.6732 19.1525 80.8441 19.473C80.9295 19.6439 80.6091 19.8896 80.5023 19.9537C80.1711 20.1353 79.7332 20.0819 79.4768 19.8041C79.2098 19.5264 79.1243 19.0991 79.1563 18.7253C79.1777 18.5223 79.2204 18.2873 79.3166 18.1164C79.3593 18.0523 79.4127 17.9882 79.4554 17.9241C79.7225 17.6678 79.7118 17.7425 79.4127 18.1591C79.1991 18.1805 79.0175 17.593 79.0068 17.4541C78.9961 17.3153 79.0175 17.1764 79.0495 17.0482C79.1563 16.653 79.4448 16.3539 79.84 16.2364C80.0429 16.1723 79.9575 15.8625 79.7545 15.9159Z" fill="#EC615B"/>
<path d="M22.2864 22.4425C22.2009 22.1862 22.2436 21.9405 22.4359 21.7375C22.6496 21.5132 22.9059 21.5453 23.173 21.588C23.3652 21.62 23.5148 21.6414 23.6964 21.5346C23.8352 21.4491 23.9314 21.2889 23.9955 21.15C24.0382 21.0432 24.0702 20.9364 24.0916 20.8296C24.1023 20.7548 24.1236 20.68 24.1343 20.6159C24.1557 20.3596 24.3373 20.2528 24.6684 20.2955C24.6577 20.4878 24.9248 20.4984 24.9782 20.3382C25.0636 20.0925 25.1705 19.8362 25.3948 19.6866C25.7259 19.4623 26.1959 19.505 26.26 19.9644C26.2921 20.1673 26.5911 20.0819 26.5698 19.8789C26.5057 19.4409 26.0891 19.1632 25.6511 19.2273C25.1171 19.3021 24.8286 19.8041 24.6791 20.2634C24.7859 20.2741 24.8927 20.2955 24.9889 20.3062C25.0102 19.9857 24.7111 19.7828 24.4014 19.8255C23.8993 19.8896 23.878 20.4557 23.7711 20.8296C23.6964 21.0966 23.6323 21.2996 23.2584 21.2889C23.1516 21.2889 23.0234 21.2141 22.9059 21.2141C22.703 21.2141 22.5 21.2889 22.3398 21.4064C21.9873 21.6734 21.8377 22.1221 21.9766 22.5387C22.0407 22.7203 22.3505 22.6455 22.2864 22.4425Z" fill="#5222D0"/>
<ellipse cx="82.0832" cy="31.3191" rx="1.38864" ry="1.48477" fill="#5222D0"/>
<ellipse cx="6.96864" cy="32.227" rx="0.918636" ry="0.907955" fill="#5222D0"/>
<ellipse cx="80.4702" cy="33.1244" rx="1.61295" ry="1.5275" fill="#EC615B"/>
<ellipse cx="48.5422" cy="0.918636" rx="0.8225" ry="0.918636" fill="#EC615B"/>
<ellipse cx="93.6836" cy="49.521" rx="1.15364" ry="1.28182" fill="#EC615B"/>
<ellipse cx="3.74276" cy="41.8193" rx="2.30727" ry="2.36068" fill="#EC615B"/>
<path d="M40.0074 12.5833C40.0501 13.4485 40.1249 14.7089 40.2637 16.2151C40.6055 19.9644 40.8085 23.201 41.6737 25.7646C42.3253 27.698 43.8635 31.3192 47.7089 34.9617C47.4846 35.6987 47.1214 36.628 46.5126 37.6321C45.7649 38.8605 44.9103 39.7364 44.2694 40.3026C41.1076 37.2155 39.4519 34.1392 38.576 32.1523C36.4289 27.2601 36.3755 22.8058 36.3328 19.5051C36.3008 16.8239 36.5251 14.5701 36.7601 12.9571C36.3755 12.5939 35.788 12.0278 35.051 11.3548C33.7051 10.1371 33.1924 9.74189 33.2778 9.57098C33.3526 9.42144 33.908 9.43212 36.2153 10.2546C34.2285 7.70167 33.3419 6.33439 33.5555 6.13144C33.7478 5.94985 34.816 6.71894 36.7708 8.43871C35.318 4.82826 35.083 3.74939 35.2753 3.65326C35.4676 3.55712 36.2153 4.42235 38.3089 7.89394C37.9778 5.0953 38.0846 4.46508 38.2555 4.42235C38.5546 4.35826 39.2169 6.09939 39.4092 6.6228C39.8578 7.81917 40.1035 8.84462 40.2317 9.53894C42.0369 8.11826 42.4001 8.24644 42.4855 8.33189C42.7953 8.60962 41.9728 10.0196 41.7699 10.3721C41.1824 11.3976 40.5094 12.1239 40.0074 12.5833Z" fill="white" stroke="#161616" stroke-width="0.213636"/>
<path opacity="0.15" d="M35.3714 3.8241C35.1898 3.92023 35.8628 5.71478 36.7387 7.24228C36.9844 7.65887 37.1339 7.86182 38.4264 9.80591C38.9498 10.5964 39.3771 11.2373 39.6655 11.6646C39.2916 13.2027 38.8857 15.3177 38.7789 17.86C38.7041 19.6332 38.5866 23.1475 39.8257 27.3561C41.1716 31.928 43.5109 35.2286 45.22 37.2261C46.0425 36.4891 46.865 35.7521 47.6875 35.015C44.1519 31.6182 42.5923 28.2107 41.8766 26.2773C40.8619 23.5214 40.5841 20.8723 40.3384 18.565C40.0714 16.1616 40.0394 14.1321 40.0607 12.6473C40.6055 12.22 41.4173 11.4723 42.0155 10.308C42.1437 10.0516 42.8487 8.69501 42.4962 8.39591C42.1223 8.07546 40.7657 9.10091 40.1996 9.53887C38.9498 5.40501 38.4478 4.47569 38.2448 4.51841C38.1273 4.53978 38.0953 4.8816 38.0525 5.42637C37.9671 6.53728 38.1594 7.44523 38.3409 8.01137C38.3303 8.03273 38.3303 8.03273 35.3714 3.8241Z" fill="#666666"/>
<path opacity="0.2" d="M42.2077 9.36792C41.7698 9.57087 40.8405 10.0729 40.1034 11.1411C39.4305 12.1131 39.2489 13.0531 39.1955 13.5338C39.0459 15.0293 39.0139 16.7384 39.2061 18.5863C39.8791 25.1663 42.9661 29.9945 44.9636 32.5688C43.5857 30.2936 41.8125 26.8006 40.7977 22.2395C39.9218 18.33 39.8898 14.9331 40.05 12.487C40.4666 12.0491 40.9366 11.4936 41.3852 10.81C41.727 10.2972 41.9941 9.80587 42.2077 9.36792Z" fill="#666666"/>
<path d="M58.2198 34.4168C57.4828 34.7586 56.8632 34.9936 56.5001 35.6666C55.7844 36.9805 56.7351 38.7323 56.9701 39.1702C57.5682 40.2811 58.4228 40.9648 59.0744 41.3707C61.1466 40.4734 64.2444 38.7643 66.9896 35.6132C70.536 31.5434 71.5614 27.228 72.0955 24.91C72.8112 21.7482 72.8432 19.0457 72.7471 17.2084C73.2705 16.3005 74.0289 15.0186 75.001 13.4805C75.8555 12.1132 76.3255 11.3975 76.1439 11.2052C76.0051 11.0664 75.471 11.1839 73.5803 12.5405C74.2639 9.88069 74.4882 8.50274 74.2426 8.4066C74.0076 8.32114 73.3453 9.40001 72.2557 11.6539C72.416 8.57751 72.3412 7.01796 72.0314 6.97524C71.711 6.92183 71.1235 8.59887 70.2689 11.985C69.7669 9.64569 69.4037 8.49205 69.1687 8.51342C68.891 8.54546 68.8055 10.2011 68.891 13.4698C67.278 12.5832 66.3594 12.2627 66.1351 12.5298C65.8253 12.9036 66.8614 14.3777 69.2435 16.9734C69.2969 17.9775 69.2862 19.5798 68.9016 21.4705C68.7094 22.4211 67.3421 29.108 62.6848 31.7571C61.1787 32.6223 59.7794 33.6905 58.2198 34.4168Z" fill="white" stroke="#161616" stroke-width="0.213636"/>
<path opacity="0.16" d="M74.2424 8.38537C74.0715 8.33196 73.7831 9.31469 72.6081 11.0024C72.3304 11.4083 72.2022 11.5579 72.0954 11.8783C71.807 12.8076 72.3197 13.3951 72.2983 14.1749C72.277 14.7304 71.9886 15.5101 70.664 16.4501C70.8883 17.2513 71.134 18.3942 71.2088 19.7722C71.4972 25.2733 68.6131 29.3004 67.609 30.9774C66.6583 32.569 63.817 36.6922 56.9058 39.2238C56.9593 39.4908 57.1515 40.2279 57.8138 40.8154C58.2197 41.1786 58.647 41.3388 58.9033 41.4029C60.3347 40.8154 62.3215 39.8113 64.3724 38.1236C67.609 35.4531 69.1793 32.537 69.927 31.1056C72.9499 25.3588 72.9499 19.7508 72.747 16.9522C73.3558 15.9908 73.8899 15.147 74.3065 14.4847C75.802 12.1133 76.272 11.3549 76.0904 11.1733C75.9943 11.0772 75.6738 11.1199 74.6377 11.8249C74.2852 12.0386 73.9327 12.2629 73.5802 12.4765C74.3386 9.28264 74.392 8.4281 74.2424 8.38537Z" fill="#666666"/>
<path opacity="0.28" d="M74.6805 13.8757C72.2237 15.3819 71.6468 16.6637 71.5934 17.5823C71.5721 17.9455 71.6362 18.0416 71.7109 18.9069C71.7109 18.9069 71.6468 20.4878 71.6682 22.4639C71.7003 25.2839 70.5359 27.8369 69.1153 30.9346C68.3675 32.5582 67.2566 34.6946 65.6116 37.0339C66.7973 35.8589 68.0684 34.3528 69.2114 32.4835C72.8646 26.4482 72.8646 20.2955 72.6509 17.3366C73.3239 16.1723 73.9968 15.0187 74.6805 13.8757Z" fill="#666666"/>
<path opacity="0.11" d="M66.1029 12.7116C68.485 13.9293 69.1579 14.1322 69.2327 14.0254C69.2968 13.9186 68.9016 13.502 68.5384 13.267C68.3888 13.1709 68.1859 13.0747 67.78 12.9038C67.0536 12.5941 66.8613 12.5727 66.7225 12.5727C66.4447 12.562 66.2311 12.6475 66.1029 12.7116Z" fill="#666666"/>
<g filter="url(#filter0_d_21_1047)">
<path d="M34.3353 80.0497C34.2498 80.5838 34.7412 81.214 35.7025 82.4851C36.2153 83.1581 36.6853 83.6708 36.995 84.0019C36.5144 84.8672 35.6705 86.7258 36.0871 88.9476C36.2153 89.6633 36.4396 90.849 37.0805 90.9985C38.1914 91.2656 39.8471 88.2426 40.4987 86.8113C41.2357 85.1983 41.5562 83.7349 41.7164 82.6988C40.6055 81.2033 39.4839 79.7079 38.373 78.2124C36.1619 78.4047 34.4741 79.1097 34.3353 80.0497Z" fill="#161616" stroke="#161616" stroke-width="0.213636"/>
<path d="M47.4099 57.2225C48.1149 62.5314 47.0253 64.625 45.7969 65.5223C44.686 66.3341 43.5858 66.0671 40.9581 66.8255C38.6615 67.4985 36.899 68.4598 35.7347 69.2075C35.8842 70.2757 36.194 71.643 36.8135 73.1278C37.7963 75.4778 39.1635 77.1335 40.1356 78.1269C39.9433 78.5328 39.1422 80.0923 37.2728 80.8828C35.756 81.5344 34.3888 81.2994 33.8867 81.1925C32.1776 79.6116 29.5499 76.6741 28.3642 72.348C27.8835 70.5855 27.296 68.3103 28.1613 65.768C28.706 64.1764 29.5499 63.2791 31.2483 61.4846C31.8038 60.8971 34.2285 58.3869 38.5226 56.101C41.0328 54.7657 42.304 54.0928 43.8101 54.4025C45.7222 54.8191 46.9078 56.4214 47.4099 57.2225Z" fill="#EC615B"/>
<path opacity="0.21" d="M44.9102 56.9022C43.1798 57.949 40.7764 59.4765 37.9991 61.474C33.1923 64.9349 30.9918 66.7829 30.2014 68.7056C29.4323 70.5749 29.9771 73.9931 36.9202 80.7761C37.2941 80.7013 37.8816 80.5197 38.4691 80.1138C39.4198 79.4622 39.8577 78.5863 40.018 78.1911C39.2382 77.3899 38.3089 76.2577 37.4757 74.7622C36.29 72.6259 35.82 70.6284 35.6171 69.2718C37.7961 67.7443 39.7082 67.114 41.0968 66.8256C43.1691 66.3877 44.8461 66.5586 46.128 65.234C46.7796 64.5611 47.0359 63.792 47.2709 63.087C47.9332 61.1109 47.6875 59.359 47.4846 58.4511C46.63 57.949 45.7648 57.4256 44.9102 56.9022Z" fill="#666666"/>
<path opacity="0.16" d="M44.2694 58.4083C44.0451 59.3911 43.6819 60.4913 43.1372 61.6449C41.2358 65.6186 38.106 67.819 36.3649 68.8445C37.7642 67.9151 39.0033 67.4238 39.8792 67.1461C40.1783 67.0499 40.4881 66.9645 43.7674 66.1099C45.2628 65.7147 45.6901 65.6079 46.1387 65.1806C46.4058 64.9242 46.8437 64.4008 47.1856 62.4995C47.3565 61.5274 47.5274 60.1067 47.4099 58.3442C46.3524 58.3656 45.3056 58.387 44.2694 58.4083Z" fill="#666666"/>
<path opacity="0.17" d="M35.6278 68.9727C35.3394 70.3292 34.9976 72.9356 35.8948 75.9799C36.461 77.9027 37.3476 79.3554 38.0312 80.3061C38.3517 80.1245 38.8003 79.8147 39.2383 79.3233C39.6121 78.8961 39.8471 78.4795 39.9967 78.159C39.2169 77.3579 38.2769 76.2256 37.4544 74.7195C36.2153 72.4549 35.788 70.3399 35.6278 68.9727Z" fill="#666666"/>
</g>
<path d="M41.7805 79.5155C42.4855 80.5089 43.2012 81.4917 43.9062 82.4851C43.5217 83.4999 42.5496 86.5014 43.981 88.8728C44.2267 89.2787 44.6646 90.0051 45.2735 90.0158C46.566 90.0371 47.5167 86.8326 47.7089 86.213C48.0294 85.1555 48.3605 83.5212 48.1683 81.4169C47.6876 78.3299 45.4444 76.6635 43.9062 77.0053C42.4962 77.3151 41.8553 79.3019 41.7805 79.5155Z" fill="#161616" stroke="#161616" stroke-width="0.213636"/>
<g filter="url(#filter1_d_21_1047)">
<path d="M54.9939 56.87C55.9019 62.5955 54.0539 64.5823 53.381 65.1698C52.7508 65.7145 52.1419 65.9282 48.7344 67.0605C47.4633 67.4877 45.5939 68.1073 43.308 68.855C43.4576 69.9232 43.7673 71.2905 44.3869 72.7752C45.3696 75.1252 46.7369 76.7809 47.7089 77.7743C47.5167 78.1802 46.7155 79.7398 44.8462 80.5302C43.3294 81.1818 41.9621 80.9468 41.4601 80.84C39.751 79.2591 37.1233 76.3216 35.9376 71.9955C35.4569 70.233 34.8694 67.9577 35.7346 65.4155C36.2794 63.8239 37.1233 62.9266 38.8217 61.132C39.3771 60.5445 41.8019 58.0343 46.096 55.7484C48.6062 54.4132 49.8773 53.7402 51.3835 54.05C53.3169 54.4559 54.4919 56.0689 54.9939 56.87Z" fill="#EC615B"/>
</g>
<path opacity="0.21" d="M47.9653 56.6351C47.6235 57.6926 46.9505 59.4017 45.6687 61.2069C42.4855 65.6719 38.8964 65.939 37.871 68.4385C37.1019 70.3079 37.6467 73.726 44.5898 80.509C45.0064 80.3381 45.5405 80.0817 46.096 79.6651C46.8971 79.0669 47.3992 78.394 47.6982 77.924C46.9078 77.1015 45.9892 75.9692 45.156 74.4951C43.9276 72.3054 43.4148 70.2651 43.1798 68.8551C45.6046 68.0326 47.5594 67.4238 48.8626 67.0179C51.4689 66.2274 52.8042 65.8856 53.8403 64.5717C54.4812 63.7492 54.7482 62.884 54.9192 62.3179C55.4532 60.5767 55.3037 59.0599 55.1542 58.184C52.7614 57.6819 50.3687 57.1585 47.9653 56.6351Z" fill="#666666"/>
<path opacity="0.16" d="M51.939 58.1306C51.7147 59.124 51.3622 60.2242 50.8067 61.3671C48.6063 65.8642 44.6861 68.0646 42.8488 68.9299C44.7074 68.3424 46.3845 67.8083 47.8479 67.3383C47.8479 67.3383 48.6063 67.0926 50.4649 66.4303C52.8363 65.5758 53.2422 65.3621 53.6481 64.9562C54.3638 64.2299 54.5561 63.4181 54.8445 62.2324C55.0581 61.3244 55.2931 59.8931 55.0688 58.0771C54.0326 58.0985 52.9858 58.1199 51.939 58.1306Z" fill="#666666"/>
<path opacity="0.17" d="M43.2973 68.7056C43.0089 70.0622 42.6671 72.6685 43.5643 75.7128C44.1305 77.6356 45.0171 79.0883 45.7007 80.039C46.0211 79.8574 46.4698 79.5476 46.9077 79.0562C47.2816 78.629 47.5166 78.2124 47.6661 77.8919C46.8864 77.0908 45.9464 75.9585 45.1239 74.4524C43.8848 72.1878 43.4575 70.0728 43.2973 68.7056Z" fill="#666666"/>
<path d="M47.431 34.2567C45.3588 35.7949 44.376 38.1556 44.1517 38.711C44.0129 39.0422 43.6176 40.089 43.436 41.531C43.2224 43.176 43.3933 44.554 43.5642 45.4619C43.639 46.7331 43.5963 48.8374 42.7097 51.2301C42.0794 52.9499 41.2249 54.2317 40.5519 55.0969C41.9192 56.1437 44.4935 57.8422 48.1574 58.6326C51.0949 59.2735 53.5944 59.0812 55.1647 58.8249C56.0833 56.2292 56.9806 53.2703 57.7176 49.9803C58.4119 46.8826 58.8713 43.9985 59.1597 41.3922C58.7003 41.1678 57.3544 40.4628 56.6708 38.9033C56.6281 38.8072 55.6454 36.4892 56.7349 35.1006C57.3865 34.2781 58.3051 34.3742 58.3051 34.1178C58.3051 33.4342 51.7892 31.0308 47.431 34.2567Z" fill="white" stroke="#161616" stroke-width="0.213636"/>
<path opacity="0.13" d="M50.2831 33.1352C50.0695 33.5197 49.9947 34.5452 49.9947 35.122C49.9947 35.7309 50.0588 36.2436 50.1336 36.6068C50.1336 37.5574 51.159 42.2575 50.4434 46.7224C49.6209 51.8497 46.8543 55.802 45.5084 57.5218C46.5872 58.0238 48.2002 58.622 50.2404 58.889C52.2699 59.1454 53.9684 58.9745 55.1434 58.7715C55.9124 56.5711 56.6388 54.1463 57.2797 51.5079C58.1556 47.8974 58.7004 44.5327 59.0315 41.5311C58.4761 41.1679 56.7243 39.9288 56.297 37.7818C56.1795 37.1622 55.9659 36.1154 56.5961 35.1754C57.1622 34.3209 58.0702 34.0538 58.3906 33.979C54.2247 32.4195 50.8599 32.0884 50.2831 33.1352Z" fill="#666666"/>
<path opacity="0.17" d="M56.3184 38.4974C56.4572 40.3668 56.4252 42.674 55.9125 45.2483C54.5772 52.0099 50.7745 56.5283 48.7236 58.622C49.5781 58.8463 50.7211 59.0599 52.0777 59.0599C53.2954 59.0706 54.3315 58.9104 55.1327 58.7288C56.6175 54.7765 57.9313 50.1727 58.6684 44.9813C58.8393 43.7849 58.9781 42.6206 59.0743 41.4777C58.6043 41.1999 57.9634 40.7406 57.3438 40.0356C56.8631 39.4802 56.532 38.9354 56.3184 38.4974Z" fill="#666666"/>
<path opacity="0.14" d="M49.0333 34.6732C49.5674 35.6773 50.5928 36.3075 51.6931 36.3289C53.4235 36.3716 54.8228 34.8868 54.6199 34.3634C54.481 34.0002 53.4235 33.7866 49.0333 34.6732Z" fill="#666666"/>
<path d="M46.0855 20.7762C45.7436 20.7441 45.4232 22.5814 44.6861 25.4228C43.5325 29.8984 42.8382 31.0521 43.5646 32.5903C43.6927 32.8573 44.2055 33.9255 45.3271 34.3528C46.5021 34.8014 48.2005 34.5023 49.023 33.4982C50.8923 31.2123 47.1964 26.4482 46.4059 21.5987C46.3632 21.385 46.2777 20.7975 46.0855 20.7762Z" fill="black"/>
<path d="M49.1405 31.9493C49.2366 32.3445 49.3434 32.9534 49.2473 33.6797C49.1939 34.1284 49.0764 34.5022 48.9696 34.8013C49.4289 34.9295 50.1339 35.0684 50.9777 35.0256C51.9712 34.9722 52.7509 34.6838 53.2102 34.4702C53.05 34.1177 52.9005 33.7331 52.7616 33.2952C52.5159 32.5368 52.3877 31.8318 52.313 31.2229C52.1634 31.4045 51.6614 31.9386 50.8068 32.1202C50.0057 32.2911 49.3648 32.0454 49.1405 31.9493Z" fill="white" stroke="#161616" stroke-width="0.213636"/>
<path d="M46.1815 22.0046C45.124 24.7818 45.1988 28.5525 47.3138 31.2443C47.6449 31.6716 47.9654 31.9814 48.179 32.1737C49.6531 32.3125 50.7854 32.0775 51.469 31.8746C51.9497 31.7357 52.4411 31.5862 52.9645 31.2337C54.1288 30.4539 54.6095 29.2789 54.7911 28.7021C55.1329 28.9798 55.3999 29.0225 55.5815 29.0118C56.5429 28.9478 57.5363 27.1639 56.9488 25.9675C56.6283 25.3159 55.9447 25.0489 55.667 24.9634C55.4533 24.1196 54.6736 21.5132 52.2168 20.0498C51.5865 19.6759 49.6958 18.5543 48.0829 19.3234C47.0147 19.8255 46.5981 20.915 46.1815 22.0046Z" fill="white" stroke="#161616" stroke-width="0.213636"/>
<path d="M49.4288 32.5903C49.3967 32.601 49.354 32.6116 49.322 32.633C49.1511 32.6971 49.1831 32.9321 49.3647 32.9428C50.2513 33.0282 51.3515 32.4407 52.0672 31.96C52.2381 31.8425 52.0779 31.5648 51.907 31.6823C51.234 32.131 50.1979 32.6971 49.3647 32.6223C49.3754 32.7291 49.3967 32.836 49.4074 32.9321C49.4395 32.9214 49.4822 32.9107 49.5142 32.8894C49.7065 32.8253 49.6211 32.5155 49.4288 32.5903Z" fill="#161616"/>
<path d="M49.4609 32.7398C50.1445 32.6437 50.8175 32.4621 51.4584 32.2057C51.6507 32.131 51.5652 31.8212 51.3729 31.896C50.7213 32.1523 50.0591 32.3339 49.3754 32.43C49.1725 32.4621 49.2579 32.7719 49.4609 32.7398Z" fill="#161616"/>
<path d="M49.5035 32.5688C49.7385 32.5902 49.9842 32.5795 50.2192 32.5154C50.4222 32.462 50.3367 32.1522 50.1338 32.2056C49.9308 32.259 49.7172 32.2697 49.5035 32.2484C49.3006 32.227 49.3006 32.5474 49.5035 32.5688Z" fill="#161616"/>
<path d="M51.4798 27.0999C51.6827 27.0999 51.6827 26.7794 51.4798 26.7794C51.2768 26.7794 51.2768 27.0999 51.4798 27.0999Z" fill="#161616"/>
<path d="M52.4732 26.9395C52.4732 26.9288 52.4732 26.9182 52.4732 26.9182C52.4732 26.8327 52.3984 26.7579 52.3129 26.7579C52.2275 26.7579 52.1527 26.8327 52.1527 26.9182C52.1527 26.9288 52.1527 26.9395 52.1527 26.9395C52.1527 27.025 52.2275 27.0998 52.3129 27.0998C52.3984 27.0891 52.4732 27.025 52.4732 26.9395Z" fill="#161616"/>
<path d="M51.9711 27.7194C52.174 27.7194 52.174 27.3989 51.9711 27.3989C51.7681 27.3989 51.7681 27.7194 51.9711 27.7194Z" fill="#161616"/>
<path d="M46.4914 26.3733C46.6943 26.3733 46.6943 26.0529 46.4914 26.0529C46.2884 26.0529 46.2884 26.3733 46.4914 26.3733Z" fill="#161616"/>
<path d="M47.2498 26.1384C47.4527 26.1384 47.4527 25.818 47.2498 25.818C47.0468 25.818 47.0361 26.1384 47.2498 26.1384Z" fill="#161616"/>
<path d="M47.0681 26.8861C47.271 26.8861 47.271 26.5657 47.0681 26.5657C46.8544 26.5657 46.8544 26.8861 47.0681 26.8861Z" fill="#161616"/>
<path d="M45.6367 24.0234C45.4231 23.735 44.8997 22.9445 44.921 21.8656C44.9317 21.1179 45.1881 20.5731 45.3269 20.2847C45.8076 19.302 46.534 18.7679 47.1322 18.3513C47.6876 17.9561 48.7237 17.2297 50.1978 17.0909C52.1526 16.8986 53.6374 17.86 54.6628 18.5329C56.639 19.8254 57.5363 21.5024 57.7285 21.8656C58.0597 22.5065 58.2306 23.062 58.4976 23.8952C58.786 24.8138 58.786 25.0702 59.2667 27.1852C59.7367 29.2681 59.8008 29.3429 59.7581 29.8022C59.6299 31.3724 58.6151 32.43 58.4549 32.6009C57.0235 34.0536 55.1649 33.9788 54.5347 33.9575C53.6801 33.9254 53.3169 33.6904 53.1781 33.5943C52.3342 32.9854 52.2808 31.8425 52.2808 31.6075C52.6119 31.4152 53.0499 31.1161 53.4558 30.6568C54.2463 29.7702 54.4919 28.7981 54.5774 28.3174C55.3999 28.5631 56.2224 28.2427 56.5642 27.6445C57.0449 26.7686 56.3719 25.4974 55.6135 25.3906C55.496 25.3693 55.1756 25.3586 54.759 25.7111C54.4172 24.9206 53.8083 23.7777 52.7294 22.6454C51.4049 21.2461 49.9842 20.5304 49.1297 20.1672C48.649 20.3702 47.9333 20.7547 47.239 21.4277C46.2135 22.389 45.8076 23.4679 45.6367 24.0234Z" fill="black"/>
<path opacity="0.14" d="M51.939 21.8123C52.377 22.5173 53.0606 23.8632 53.0286 25.615C52.9645 29.7382 49.0015 32.0454 48.7559 32.1736C49.0122 32.2163 51.5118 32.6116 53.2529 30.8384C54.1715 29.8984 54.4493 28.8088 54.5347 28.3068C54.7163 28.3709 55.1222 28.467 55.5922 28.3282C55.7097 28.2961 56.3934 28.0932 56.6177 27.4523C56.7245 27.1638 56.6925 26.8968 56.6711 26.7473C56.6604 26.5657 56.6177 26.1384 56.2972 25.7645C56.1797 25.6363 55.9981 25.4227 55.699 25.3586C55.2184 25.2625 54.8445 25.615 54.7911 25.6577C54.5454 25.0702 54.1715 24.3438 53.6161 23.5748C53.0179 22.8163 52.4304 22.2288 51.939 21.8123Z" fill="#666666"/>
<path opacity="0.18" d="M51.6079 34.8867C51.2874 33.9788 50.967 33.0601 50.6572 32.1522C51.1806 31.9813 51.7147 31.7997 52.2381 31.6288C52.5265 32.5688 52.8042 33.5195 53.0927 34.4595C52.6013 34.609 52.1099 34.7479 51.6079 34.8867Z" fill="#666666"/>
<path opacity="0.21" d="M54.6522 27.8368C54.3852 28.435 53.9152 29.3109 53.0713 30.1441C51.6827 31.522 50.1018 31.9707 49.3861 32.1309C49.6959 32.1522 51.5652 32.2804 52.9538 31.1268C53.7122 30.4966 54.1075 29.6954 54.1075 29.6954C54.3104 29.2788 54.4279 28.8516 54.4813 28.67C54.5668 28.3388 54.6202 28.0504 54.6522 27.8368Z" fill="#666666"/>
<path opacity="0.18" d="M52.3129 34.7586C52.0032 33.8186 51.7041 32.8679 51.3943 31.9279C51.6613 31.8425 51.9284 31.7463 52.1954 31.6609C52.4838 32.6009 52.7829 33.5409 53.0713 34.4809C52.8257 34.5663 52.5693 34.6625 52.3129 34.7586Z" fill="#666666"/>
<path d="M49.1405 24.0555C48.852 25.1984 48.617 26.3521 48.4248 27.5164C48.3927 27.7087 48.3286 27.933 48.5316 28.0398C48.7666 28.168 49.3327 27.9864 49.5784 27.933C49.7814 27.8903 49.6959 27.5805 49.493 27.6232C49.322 27.6659 49.0123 27.7621 48.852 27.7407C48.6384 27.7087 48.6918 27.7514 48.7559 27.5057C48.8414 27.1425 48.8841 26.7473 48.9589 26.3841C49.1084 25.6364 49.2686 24.8887 49.4502 24.1516C49.5036 23.9487 49.1939 23.8632 49.1405 24.0555Z" fill="#161616"/>
<path d="M46.4593 25.145C46.8759 24.6643 47.6022 24.6536 48.0295 25.113C48.1363 25.2305 48.3072 25.0596 48.2004 24.9421C47.6877 24.3866 46.7904 24.3973 46.2884 24.9741C46.1922 25.0916 46.3631 25.2625 46.4593 25.145Z" fill="#161616"/>
<path d="M50.8495 25.2626C51.4156 24.8994 52.174 25.0596 52.5372 25.6364C52.6226 25.7646 52.8256 25.6471 52.7401 25.5189C52.3129 24.8353 51.4049 24.6217 50.7213 25.0596C50.5931 25.1344 50.7213 25.348 50.8495 25.2626Z" fill="#161616"/>
<path d="M47.1215 23.297C47.506 23.094 47.9333 23.1047 48.3071 23.3184C48.446 23.3931 48.5635 23.1902 48.4246 23.1154C47.976 22.859 47.4526 22.8484 46.9933 23.094C46.8651 23.1581 46.9826 23.3718 47.1215 23.297Z" fill="#161616"/>
<path d="M50.9777 23.3611C51.5011 23.2757 52.0031 23.4145 52.4197 23.7243C52.5479 23.8205 52.6654 23.6068 52.5372 23.5214C52.0565 23.1689 51.4904 23.0407 50.9136 23.1261C50.764 23.1582 50.8281 23.3825 50.9777 23.3611Z" fill="#161616"/>
<path d="M47.5701 29.2896C48.7451 29.6527 49.9842 29.3857 50.9135 28.5846C51.031 28.4884 50.8601 28.3175 50.7426 28.4137C49.8774 29.1614 48.7238 29.3964 47.6342 29.0546C47.4847 29.0012 47.4206 29.2362 47.5701 29.2896Z" fill="#161616"/>
<defs>
<filter id="filter0_d_21_1047" x="23.7185" y="54.328" width="27.9838" height="44.7941" filterUnits="userSpaceOnUse" color-interpolation-filters="sRGB">
<feFlood flood-opacity="0" result="BackgroundImageFix"/>
<feColorMatrix in="SourceAlpha" type="matrix" values="0 0 0 0 0 0 0 0 0 0 0 0 0 0 0 0 0 0 127 0" result="hardAlpha"/>
<feOffset dy="4"/>
<feGaussianBlur stdDeviation="2"/>
<feComposite in2="hardAlpha" operator="out"/>
<feColorMatrix type="matrix" values="0 0 0 0 0 0 0 0 0 0 0 0 0 0 0 0 0 0 0.1 0"/>
<feBlend mode="normal" in2="BackgroundImageFix" result="effect1_dropShadow_21_1047"/>
<feBlend mode="normal" in="SourceGraphic" in2="effect1_dropShadow_21_1047" result="shape"/>
</filter>
<filter id="filter1_d_21_1047" x="31.2918" y="53.9755" width="27.9481" height="34.9948" filterUnits="userSpaceOnUse" color-interpolation-filters="sRGB">
<feFlood flood-opacity="0" result="BackgroundImageFix"/>
<feColorMatrix in="SourceAlpha" type="matrix" values="0 0 0 0 0 0 0 0 0 0 0 0 0 0 0 0 0 0 127 0" result="hardAlpha"/>
<feOffset dy="4"/>
<feGaussianBlur stdDeviation="2"/>
<feComposite in2="hardAlpha" operator="out"/>
<feColorMatrix type="matrix" values="0 0 0 0 0 0 0 0 0 0 0 0 0 0 0 0 0 0 0.1 0"/>
<feBlend mode="normal" in2="BackgroundImageFix" result="effect1_dropShadow_21_1047"/>
<feBlend mode="normal" in="SourceGraphic" in2="effect1_dropShadow_21_1047" result="shape"/>
</filter>
</defs>
</svg>
