<svg width="150" height="33" viewBox="0 0 150 33" fill="none" xmlns="http://www.w3.org/2000/svg">
<g clip-path="url(#clip0_21_992)">
<path d="M22.9709 5.97998H2.75653V29.235H22.9709V5.97998Z" fill="white"/>
<path d="M13.4317 0H0V33H12.9172C22.5327 33 30.3365 25.6051 30.3365 16.4948C30.3365 7.5498 22.8114 0.258377 13.4317 0ZM19.7134 13.849L3.78404 29.3516L10.591 18.164H5.67069L13.3995 10.7743H8.30237L12.7403 6.5783H22.5756L15.0075 13.849H19.7134Z" fill="#E94277"/>
<path d="M59.0277 0.0517578V22.2206H55.1633V21.0165C53.7747 22.0411 52.0872 22.6195 50.3394 22.6702C45.7408 22.6702 42.2998 19.1975 42.2998 14.34C42.2917 13.0185 42.5729 11.7102 43.1251 10.5006C44.9261 6.7644 49.9803 4.56304 54.8525 7.44137V2.58385L59.0277 0.0517578ZM55.0507 14.3452C55.0937 11.7046 53.2767 9.78742 50.72 9.7771C48.2493 9.7771 46.3732 11.6633 46.3303 14.2212C46.2875 16.8773 48.1473 18.9443 50.6182 19.0063C53.089 19.0684 54.9864 17.0737 55.0293 14.3556" fill="#575756"/>
<path d="M69.3133 22.6702C68.1801 22.677 67.0569 22.4662 66.0092 22.0494C64.9617 21.6328 64.0107 21.019 63.2122 20.2438C62.4138 19.4686 61.7834 18.5476 61.3585 17.5348C60.9338 16.522 60.7224 15.4376 60.7376 14.3452C60.7376 9.8959 64.6716 6.18559 69.4203 6.2011C70.5597 6.18092 71.6917 6.38067 72.7495 6.78856C73.8076 7.19648 74.7703 7.8043 75.5809 8.57628C76.3916 9.34826 77.0341 10.2688 77.47 11.2837C77.9063 12.2986 78.1275 13.3873 78.1208 14.4859C78.1139 15.5845 77.8794 16.6706 77.4305 17.6804C76.9819 18.6902 76.3282 19.6033 75.5081 20.3659C74.6878 21.1285 73.7177 21.7252 72.6549 22.1209C71.5918 22.5167 70.4575 22.7034 69.3186 22.6702H69.3133ZM73.853 14.5777C73.9066 11.8647 72.036 9.86489 69.4043 9.82354C68.7999 9.82004 68.2011 9.93291 67.6426 10.1555C67.084 10.3781 66.5772 10.706 66.152 11.1199C65.7266 11.5339 65.3912 12.0255 65.1657 12.566C64.9399 13.1065 64.8285 13.6851 64.8379 14.2676C64.7736 16.9909 66.6333 19.0166 69.249 19.058C71.8644 19.0993 73.794 17.239 73.853 14.5777Z" fill="#575756"/>
<path d="M121.373 2.439L125.259 0.0722656V22.2307H121.373V2.439Z" fill="#575756"/>
<path d="M113.398 7.43605L117.284 5.01245V22.2255H113.398V7.43605Z" fill="#575756"/>
<path d="M129.263 2.48039L133.133 0.0671387V22.2256H129.263V2.48039Z" fill="#575756"/>
<path d="M117.284 5.01254V0.0930176L113.398 2.45975V5.01254H117.284Z" fill="#575756"/>
<path d="M111.415 6.52661H98.2401L95.7212 9.94236H104.233L94.8152 22.2566H108.06L110.568 18.8202H101.955L111.415 6.52661Z" fill="#575756"/>
<path d="M91.3045 17.4043C91.1332 17.5593 90.9616 17.704 90.8008 17.8539C89.9368 18.6505 88.78 19.0836 87.5848 19.0579C84.9694 19.0166 83.1041 16.9909 83.1684 14.2676C83.1604 13.6849 83.2732 13.1066 83.4997 12.5664C83.7262 12.0261 84.062 11.5348 84.4877 11.1211C84.9133 10.7074 85.4201 10.3796 85.9785 10.1568C86.5369 9.93398 87.136 9.82068 87.7404 9.82347C88.8459 9.82329 89.9116 10.2235 90.7257 10.9448L91.3422 11.4926L94.1506 8.97601C93.3473 8.09883 92.3589 7.39741 91.2514 6.9188C90.144 6.44019 88.9431 6.19546 87.7295 6.20102C82.9808 6.20102 79.0305 9.89582 79.0466 14.3451C79.0332 15.4372 79.2453 16.5209 79.6707 17.5331C80.0961 18.5453 80.7264 19.4657 81.5247 20.2406C82.3229 21.0155 83.2732 21.6294 84.32 22.0465C85.367 22.4637 86.4896 22.6756 87.6223 22.6701C88.8469 22.686 90.0609 22.4504 91.1837 21.9791C92.3065 21.5078 93.3124 20.8114 94.1345 19.9364L91.3045 17.4043Z" fill="#575756"/>
<path d="M142.673 6.16492C140.448 6.18208 138.292 6.9089 136.541 8.23194L138.053 11.0689C138.053 11.0689 140.293 9.58584 142.705 9.58584C145.83 9.58584 146.114 11.5443 146.114 11.5443V12.6295H141.548C139.94 12.6295 135.453 13.3013 135.453 17.6214C135.453 22.0758 139.972 22.7011 141.306 22.7011C142.641 22.7011 144.86 22.1017 146.13 20.8769V22.2566H150.016V11.3686C150.016 7.03306 145.053 6.14941 142.689 6.14941L142.673 6.16492ZM141.832 19.0683C140.979 19.0683 139.264 18.9701 139.264 17.518C139.264 16.066 141.006 15.8076 141.944 15.8076H146.12V17.2545C145.423 18.5877 142.619 19.0424 141.832 19.0424" fill="#575756"/>
<path d="M42.5515 28.0598H44.2024C45.4245 28.0598 46.2551 28.7885 46.2551 29.8788C46.2551 30.9691 45.4245 31.6978 44.2024 31.6978H42.5515V28.0598ZM44.1595 31.1242C44.3366 31.1352 44.5139 31.1111 44.6809 31.0533C44.8479 30.9957 45.0007 30.9056 45.13 30.7886C45.2593 30.6715 45.3625 30.5302 45.433 30.3734C45.5035 30.2166 45.54 30.0473 45.54 29.8764C45.54 29.7054 45.5035 29.5362 45.433 29.3792C45.3625 29.2223 45.2593 29.081 45.13 28.9641C45.0007 28.8472 44.8479 28.757 44.6809 28.6992C44.5139 28.6414 44.3366 28.6173 44.1595 28.6283H43.2537V31.1242H44.1595Z" fill="#575756"/>
<path d="M46.9412 29.879C46.9231 29.4883 47.0267 29.1014 47.2385 28.7679C47.4503 28.4346 47.7608 28.1699 48.13 28.0082C48.4994 27.8463 48.9103 27.7947 49.3102 27.86C49.7099 27.9254 50.0804 28.1048 50.3738 28.3748C50.6669 28.645 50.8697 28.9933 50.9556 29.3756C51.0418 29.7577 51.0073 30.1559 50.8566 30.5189C50.7057 30.8819 50.4459 31.193 50.1101 31.4125C49.7745 31.6318 49.3782 31.7492 48.9726 31.7496C48.71 31.7622 48.4477 31.7233 48.2012 31.6347C47.9549 31.5463 47.7298 31.4105 47.5396 31.2353C47.3497 31.0604 47.1985 30.8498 47.0956 30.6165C46.9927 30.3833 46.9403 30.1324 46.9412 29.879ZM50.2966 29.879C50.2966 29.6265 50.219 29.3798 50.0733 29.1699C49.9279 28.9599 49.7212 28.7962 49.4793 28.6997C49.2374 28.6031 48.9712 28.5779 48.7144 28.627C48.4576 28.6764 48.2216 28.7978 48.0365 28.9763C47.8514 29.1548 47.7252 29.3823 47.6742 29.6299C47.6233 29.8775 47.6494 30.1342 47.7496 30.3674C47.8497 30.6006 48.0195 30.7999 48.2373 30.9401C48.4548 31.0805 48.7109 31.1554 48.9726 31.1554C49.1478 31.1603 49.3224 31.1308 49.4853 31.0684C49.6484 31.0059 49.7963 30.9122 49.9203 30.7926C50.0444 30.673 50.1416 30.5304 50.2063 30.3731C50.2711 30.2161 50.3017 30.048 50.2966 29.879Z" fill="#575756"/>
<path d="M51.4865 29.8787C51.5079 29.4951 51.645 29.1259 51.8809 28.8165C52.1168 28.5069 52.4414 28.2703 52.8145 28.1359C53.1877 28.0017 53.5936 27.9751 53.9823 28.0597C54.371 28.1445 54.7254 28.3366 55.0024 28.6127L54.5469 29.0262C54.4208 28.8891 54.2653 28.78 54.0916 28.7058C53.9178 28.6318 53.7294 28.5948 53.5392 28.5972C53.358 28.5862 53.1763 28.611 53.0053 28.6701C52.8342 28.7295 52.6778 28.8218 52.5452 28.9416C52.4129 29.0614 52.3073 29.2063 52.2351 29.3671C52.163 29.5277 52.1256 29.7011 52.1256 29.8763C52.1256 30.0514 52.163 30.2246 52.2351 30.3854C52.3073 30.546 52.4129 30.6909 52.5452 30.8107C52.6778 30.9305 52.8342 31.0231 53.0053 31.0822C53.1763 31.1416 53.358 31.1664 53.5392 31.1551C53.7294 31.1586 53.9182 31.1221 54.0921 31.0481C54.2662 30.9739 54.4215 30.864 54.5469 30.7263L55.0024 31.1396C54.7268 31.418 54.3726 31.6122 53.9837 31.6984C53.5948 31.7845 53.1882 31.759 52.814 31.625C52.44 31.4908 52.115 31.2538 51.8789 30.9436C51.6429 30.6333 51.5065 30.2632 51.4865 29.8787Z" fill="#575756"/>
<path d="M55.7421 30.1112V28.0442H56.4443V30.07C56.4443 30.8193 56.7928 31.1395 57.4038 31.1395C58.0149 31.1395 58.3578 30.8193 58.3578 30.07V28.0597H59.0437V30.1267C59.0437 30.5489 58.8698 30.9537 58.5604 31.2523C58.2508 31.5506 57.8309 31.7185 57.393 31.7185C56.9552 31.7185 56.5353 31.5506 56.2257 31.2523C55.916 30.9537 55.7421 30.5489 55.7421 30.1267" fill="#575756"/>
<path d="M63.6962 31.6978L63.6907 29.2846L62.4473 31.2792H62.1365L60.8984 29.3156V31.6978H60.2283V28.0598H60.8072L62.3026 30.4679L63.7766 28.0598H64.35L64.3555 31.6978H63.6962Z" fill="#575756"/>
<path d="M68.4878 31.1295V31.6978H65.6633V28.0598H68.4129V28.6233H66.36V29.5687H68.1823V30.1269H66.36V31.1295H68.4878Z" fill="#575756"/>
<path d="M72.9044 28.0598V31.6978H72.3255L70.2459 29.233V31.6978H69.5545V28.0598H70.1279L72.2076 30.5198V28.0598H72.9044Z" fill="#575756"/>
<path d="M74.9679 28.6283H73.7189V28.0598H76.9188V28.6283H75.6701V31.6978H74.9679V28.6283Z" fill="#575756"/>
<path d="M77.4923 31.3101L77.7388 30.7934C78.0983 31.0514 78.5343 31.191 78.9824 31.1914C79.5666 31.1914 79.8186 30.9899 79.8186 30.7212C79.8186 29.9356 77.5727 30.4472 77.5727 29.0985C77.5727 28.5093 78.0604 28.0132 79.095 28.0132C79.5356 28.0066 79.9697 28.1175 80.3492 28.3337L80.1294 28.8504C79.8158 28.6664 79.4568 28.5665 79.0895 28.5612C78.5053 28.5612 78.2694 28.7833 78.2694 29.0779C78.2694 29.853 80.5045 29.3465 80.5045 30.6798C80.5045 31.2636 80.0168 31.765 78.9824 31.765C78.4493 31.7785 77.9265 31.6242 77.4923 31.3256" fill="#575756"/>
<path d="M83.3345 28.0598H84.9799C86.2075 28.0598 87.0381 28.7885 87.0381 29.8788C87.0381 30.9691 86.2075 31.6978 84.9799 31.6978H83.3345V28.0598ZM84.9425 31.1242C85.1194 31.1352 85.2969 31.1111 85.4639 31.0533C85.6307 30.9957 85.7837 30.9056 85.913 30.7886C86.0423 30.6715 86.1455 30.5302 86.216 30.3734C86.2865 30.2166 86.3228 30.0473 86.3228 29.8764C86.3228 29.7054 86.2865 29.5362 86.216 29.3792C86.1455 29.2223 86.0423 29.081 85.913 28.9641C85.7837 28.8472 85.6307 28.757 85.4639 28.6992C85.2969 28.6414 85.1194 28.6173 84.9425 28.6283H84.026V31.1242H84.9425Z" fill="#575756"/>
<path d="M90.5809 31.6977L89.8091 30.6332H88.8122V31.6926H88.1155V28.0752H89.6644C90.6561 28.0752 91.2724 28.5611 91.2724 29.3671C91.2845 29.6165 91.2129 29.8627 91.0679 30.0694C90.923 30.2762 90.7128 30.4321 90.4684 30.5143L91.3367 31.7132L90.5809 31.6977ZM89.6322 28.6282H88.8122V30.0802H89.6322C90.2488 30.0802 90.5649 29.8116 90.5649 29.3516C90.5649 28.8918 90.2488 28.6282 89.6322 28.6282Z" fill="#575756"/>
<path d="M94.9333 30.8554H93.0467L92.6768 31.6977H91.9532L93.6522 28.0806H94.333L96.0375 31.6977H95.3031L94.9333 30.8554ZM94.7029 30.3387L93.9898 28.7523L93.261 30.3232L94.7029 30.3387Z" fill="#575756"/>
<path d="M97.5382 28.6283V29.7342H99.3552V30.3027H97.5382V31.6978H96.8359V28.0598H99.5908V28.6283H97.5382Z" fill="#575756"/>
<path d="M101.488 28.6283H100.234V28.0598H103.439V28.6283H102.185V31.6978H101.488V28.6283Z" fill="#575756"/>
<path d="M104.951 28.0598H104.249V31.6978H104.951V28.0598Z" fill="#575756"/>
<path d="M109.592 28.0598V31.6978H109.019L106.934 29.233V31.6978H106.242V28.0598H106.816L108.901 30.5198V28.0598H109.592Z" fill="#575756"/>
<path d="M113.484 29.8374H114.164V31.2843C113.738 31.5933 113.218 31.757 112.685 31.7494C112.43 31.7494 112.178 31.7009 111.942 31.607C111.707 31.5129 111.493 31.3751 111.313 31.2015C111.133 31.0276 110.99 30.8215 110.892 30.5947C110.795 30.3676 110.745 30.1245 110.745 29.8786C110.745 29.633 110.795 29.3898 110.892 29.1628C110.99 28.9358 111.133 28.7296 111.313 28.556C111.493 28.3823 111.707 28.2444 111.942 28.1504C112.178 28.0565 112.43 28.008 112.685 28.008C112.967 27.995 113.248 28.0408 113.51 28.1425C113.772 28.2441 114.008 28.3992 114.202 28.5972L113.762 29.0158C113.628 28.8813 113.466 28.7748 113.287 28.7028C113.109 28.6308 112.916 28.595 112.722 28.5972C112.541 28.5861 112.359 28.6109 112.189 28.67C112.017 28.7294 111.861 28.8217 111.728 28.9416C111.596 29.0614 111.49 29.2062 111.418 29.367C111.346 29.5276 111.309 29.701 111.309 29.8762C111.309 30.0514 111.346 30.2246 111.418 30.3854C111.49 30.5459 111.596 30.6908 111.728 30.8106C111.861 30.9304 112.017 31.023 112.189 31.0821C112.359 31.1415 112.541 31.1663 112.722 31.155C112.992 31.1603 113.259 31.0961 113.494 30.969L113.484 29.8374Z" fill="#575756"/>
<path d="M120.36 29.3517C120.36 30.1528 119.744 30.6436 118.752 30.6436H117.916V31.6772H117.219V28.0598H118.768C119.76 28.0598 120.376 28.5457 120.376 29.3517H120.36ZM119.669 29.3517C119.669 28.897 119.353 28.6283 118.736 28.6283H117.916V30.0753H118.736C119.353 30.0753 119.669 29.8117 119.669 29.3517Z" fill="#575756"/>
<path d="M121.346 28.0598H122.049V31.1242H124.016V31.6978H121.346V28.0598Z" fill="#575756"/>
<path d="M127.564 30.8554H125.677L125.302 31.6977H124.584L126.277 28.0806H126.969L128.673 31.6977H127.939L127.564 30.8554ZM127.328 30.3387L126.62 28.7523L125.913 30.3387H127.328Z" fill="#575756"/>
<path d="M129.842 28.6283H128.593V28.0598H131.793V28.6283H130.544V31.6978H129.842V28.6283Z" fill="#575756"/>
<path d="M133.304 28.6283V29.7342H135.127V30.3027H133.304V31.6978H132.602V28.0598H135.357V28.6283H133.304Z" fill="#575756"/>
<path d="M135.99 29.8789C135.97 29.4868 136.073 29.0984 136.285 28.7633C136.497 28.4282 136.809 28.1622 137.179 27.9992C137.549 27.8364 137.962 27.7843 138.363 27.8497C138.764 27.915 139.136 28.0949 139.431 28.3659C139.725 28.637 139.928 28.987 140.015 29.3706C140.101 29.7542 140.066 30.1537 139.914 30.5178C139.762 30.8821 139.501 31.194 139.163 31.4137C138.826 31.6332 138.428 31.7501 138.021 31.7497C137.758 31.7623 137.496 31.7231 137.25 31.6347C137.003 31.5464 136.778 31.4104 136.588 31.2354C136.398 31.0604 136.247 30.8498 136.144 30.6166C136.041 30.3834 135.988 30.1324 135.99 29.8789ZM139.35 29.8789C139.351 29.6253 139.274 29.377 139.129 29.1655C138.983 28.9542 138.776 28.789 138.533 28.6913C138.29 28.5934 138.023 28.5673 137.765 28.6162C137.507 28.6652 137.269 28.7868 137.083 28.9657C136.896 29.1447 136.769 29.373 136.718 29.6219C136.666 29.8707 136.692 30.1285 136.792 30.363C136.893 30.5975 137.063 30.798 137.282 30.9391C137.501 31.0799 137.758 31.1552 138.021 31.1552C138.197 31.161 138.372 31.132 138.536 31.07C138.7 31.0079 138.849 30.9143 138.974 30.7949C139.099 30.6753 139.197 30.5324 139.263 30.375C139.328 30.2173 139.36 30.0485 139.356 29.8789" fill="#575756"/>
<path d="M143.568 31.6977L142.802 30.6332H141.805V31.6926H141.103V28.0752H142.657C143.643 28.0752 144.265 28.5611 144.265 29.3671C144.277 29.6165 144.205 29.8627 144.06 30.0694C143.916 30.2762 143.705 30.4321 143.461 30.5143L144.329 31.7132L143.568 31.6977ZM142.619 28.6282H141.805V30.0802H142.619C143.236 30.0802 143.552 29.8116 143.552 29.3516C143.552 28.8918 143.236 28.6282 142.619 28.6282Z" fill="#575756"/>
<path d="M148.81 31.6978L148.805 29.2846L147.567 31.2792H147.25L146.012 29.3156V31.6978H145.342V28.0598H145.921L147.417 30.4679L148.89 28.0598H149.469V31.6978H148.81Z" fill="#575756"/>
</g>
<defs>
<clipPath id="clip0_21_992">
<rect width="150" height="33" fill="white"/>
</clipPath>
</defs>
</svg>
